<svg xmlns="http://www.w3.org/2000/svg" version="1.1" viewBox="-5.0 -10.0 110.0 135.0">
 <path d="m25.211 39.547c-0.28125-0.25781-0.30078-0.69531-0.042969-0.97656 0.25781-0.28125 0.69531-0.30078 0.97656-0.042968 0.28125 0.25781 0.30078 0.69531 0.042969 0.97656s-0.69531 0.30078-0.97656 0.042969zm0.46484-7.8086c-0.41406 0-0.75 0.33594-0.75 0.75v3.8125c0 0.41406 0.33594 0.75 0.75 0.75 0.41406 0 0.75-0.33594 0.75-0.75v-3.8125c0-0.41406-0.33594-0.75-0.75-0.75zm0 9.2852c-0.41406 0-0.75 0.33594-0.75 0.75v14.477c0 0.41406 0.33594 0.75 0.75 0.75 0.41406 0 0.75-0.33594 0.75-0.75v-14.477c0-0.41406-0.33594-0.75-0.75-0.75zm56.707 15.164c0.25781-0.28125 0.23828-0.71875-0.042968-0.97656-0.28125-0.25781-0.71875-0.23828-0.97656 0.042968-0.25781 0.28125-0.23828 0.71875 0.042969 0.97656 0.28125 0.25781 0.71875 0.23828 0.97656-0.042969zm-0.51172 1.5195c-0.41406 0-0.75 0.33594-0.75 0.75v1.8125c0 0.41406 0.33594 0.75 0.75 0.75 0.41406 0 0.75-0.33594 0.75-0.75v-1.8125c0-0.41406-0.33594-0.75-0.75-0.75zm0-12.594c-0.41406 0-0.75 0.33594-0.75 0.75v7.1211c0 0.41406 0.33594 0.75 0.75 0.75 0.41406 0 0.75-0.33594 0.75-0.75v-7.1211c0-0.41406-0.33594-0.75-0.75-0.75zm12.07-2.4375v14.645c0 0.41406-0.33594 0.75-0.75 0.75h-6.7969v6.4727c0 0.41406-0.33594 0.75-0.75 0.75h-6.7969v6.4727c0 0.41406-0.33594 0.75-0.75 0.75h-7.5469c-0.41406 0-0.75-0.33594-0.75-0.75v-17.352l-39.602 0.003907v17.352c0 0.41406-0.33594 0.75-0.75 0.75h-7.5469c-0.41406 0-0.75-0.33594-0.75-0.75v-6.4727h-6.7969c-0.41406 0-0.75-0.33594-0.75-0.75v-6.4727h-6.7969c-0.41406 0-0.75-0.33594-0.75-0.75v-14.645c0-0.41406 0.33594-0.75 0.75-0.75h6.7969v-6.4727c0-0.41406 0.33594-0.75 0.75-0.75h6.7969v-6.4727c0-0.41406 0.33594-0.75 0.75-0.75h7.5469c0.41406 0 0.75 0.33594 0.75 0.75v17.352h39.605v-17.352c0-0.41406 0.33594-0.75 0.75-0.75h7.5469c0.41406 0 0.75 0.33594 0.75 0.75v6.4727h6.7969c0.41406 0 0.75 0.33594 0.75 0.75v6.4727h6.7969c0.41406 0 0.75 0.33594 0.75 0.75zm-80.336 13.898v-13.145h-6.0469v13.145zm7.5469 7.2227v-27.594h-6.0469v27.594zm7.5469-10.129v-24.691h-6.0469v42.043h6.0469zm41.105-0.75v-5.8398l-39.605 0.003906v5.8398h39.605zm7.5469 11.629-0.003906-35.566h-6.0469v42.043h6.0469v-6.4727zm7.5469-7.2227v-21.121h-6.0469v27.594h6.0469zm7.5469-13.895h-6.0469v13.145h6.0469z"/></svg>