<svg xmlns="http://www.w3.org/2000/svg" xmlns:xlink="http://www.w3.org/1999/xlink" version="1.1" x="0px" y="0px" viewBox="0 0 64 80" style="enable-background:new 0 0 64 64;" xml:space="preserve"><g><g><path d="M53,7H40V6c0-1.7-1.3-3-3-3H27c-1.7,0-3,1.3-3,3v1H11c-1.7,0-3,1.3-3,3v48c0,1.7,1.3,3,3,3h42c1.7,0,3-1.3,3-3V10    C56,8.3,54.7,7,53,7z M25,15h14c0.6,0,1-0.4,1-1v-1h10v42H14V13h10v1C24,14.6,24.4,15,25,15z M26,6c0-0.6,0.4-1,1-1h10    c0.6,0,1,0.4,1,1v7H26V6z M54,58c0,0.6-0.4,1-1,1H11c-0.6,0-1-0.4-1-1V10c0-0.6,0.4-1,1-1h13v2H13c-0.6,0-1,0.4-1,1v44    c0,0.6,0.4,1,1,1h38c0.6,0,1-0.4,1-1V12c0-0.6-0.4-1-1-1H40V9h13c0.6,0,1,0.4,1,1V58z"/><path d="M19,21.2c-1.3,1-2,2.5-2,4.2c0,3.6,2.1,8.7,6,8.7c0.4,0,0.7-0.1,1-0.2c0.2,0.1,0.5,0.2,1,0.2c3.9,0,6-5,6-8.7    c0-1.7-0.7-3.2-2-4.2c-1-0.8-2.4-1.2-3.8-1.2c0.2-0.5,0.7-1,1.8-1c0.6,0,1-0.4,1-1s-0.4-1-1-1c-2.4,0-3.5,1.6-3.9,3    C21.6,19.9,20.1,20.3,19,21.2z M27.8,22.7c0.8,0.6,1.2,1.5,1.2,2.6c0,2.8-1.5,6.7-4,6.7c-0.1,0-0.1,0-0.3-0.1    c-0.2-0.1-0.4-0.2-0.7-0.2s-0.6,0.1-0.7,0.2C23.1,32,23.1,32,23,32c-2.5,0-4-3.9-4-6.7c0-1.1,0.4-2,1.2-2.6    c0.9-0.7,2.2-0.9,3.6-0.6c0.2,0,0.3,0,0.5,0C25.6,21.8,26.9,22,27.8,22.7z"/><path d="M34,23h10c0.6,0,1-0.4,1-1s-0.4-1-1-1H34c-0.6,0-1,0.4-1,1S33.4,23,34,23z"/><path d="M34,28h12c0.6,0,1-0.4,1-1s-0.4-1-1-1H34c-0.6,0-1,0.4-1,1S33.4,28,34,28z"/><path d="M34,33h8c0.6,0,1-0.4,1-1s-0.4-1-1-1h-8c-0.6,0-1,0.4-1,1S33.4,33,34,33z"/><path d="M34,41h10c0.6,0,1-0.4,1-1s-0.4-1-1-1H34c-0.6,0-1,0.4-1,1S33.4,41,34,41z"/><path d="M34,46h12c0.6,0,1-0.4,1-1s-0.4-1-1-1H34c-0.6,0-1,0.4-1,1S33.4,46,34,46z"/><path d="M34,51h8c0.6,0,1-0.4,1-1s-0.4-1-1-1h-8c-0.6,0-1,0.4-1,1S33.4,51,34,51z"/><path d="M30,37H18c-0.3,0-0.5,0.1-0.7,0.3c-0.2,0.2-0.3,0.5-0.3,0.8l1,14c0,0.5,0.5,0.9,1,0.9h10c0.5,0,1-0.4,1-0.9l1-14    c0-0.3-0.1-0.5-0.3-0.8C30.5,37.1,30.3,37,30,37z M28.9,39l-0.4,6.2c0,0-0.1,0-0.1,0c-0.1,0.1-2.3,1.7-3.7,0.1    c-1.6-1.8-3.8-1.5-5.3-0.8L19.1,39H28.9z M19.9,51l-0.3-4.2c0.3-0.2,2.3-1.6,3.6-0.1c0.9,1,1.9,1.3,2.9,1.3c0.8,0,1.5-0.2,2.1-0.5    L28.1,51H19.9z"/></g></g></svg>